<svg width="35" height="40" viewBox="0 0 35 40" fill="none" xmlns="http://www.w3.org/2000/svg">
<path d="M34.8 1.73921C34.8 0.778669 34.0213 0 33.0608 0H5.6C2.50721 0 0 2.5072 0 5.6V34.4C0 37.4928 2.50721 40 5.6 40H33.0365C34.0104 40 34.8 39.2104 34.8 38.2365C34.8 37.1808 33.8776 36.364 32.8224 36.395C32.5667 36.4025 32.3071 36.4062 32.0438 36.4062C29.3667 36.4062 27.0333 36.0052 25.0438 35.2031C23.0542 34.401 21.5073 33.1823 20.4031 31.5469C19.9157 30.8249 19.5328 30.0188 19.2545 29.1284C18.6243 27.1125 20.4263 25.3438 22.5384 25.3438H23.3623C24.9039 25.3438 26.0402 26.6662 26.9344 27.9219C27.424 28.6094 28.0958 29.1302 28.95 29.4844C29.8146 29.8385 30.8146 30.0156 31.95 30.0156C32.9917 30.0156 33.8771 29.875 34.6063 29.5938C34.7246 29.5488 34.8 29.4337 34.8 29.3071V24.2291C34.8 24.1426 34.7488 24.0641 34.6688 24.0312C33.9188 23.7083 32.9604 23.4115 31.7938 23.1406L28.45 22.3594C25.6792 21.724 23.4969 20.6979 21.9031 19.2812C20.3094 17.8542 19.5177 15.9271 19.5281 13.5C19.5177 11.5208 20.049 9.78646 21.1219 8.29687C22.1948 6.80729 23.6792 5.64583 25.575 4.8125C27.4708 3.97917 29.6323 3.5625 32.0594 3.5625C32.3078 3.5625 32.5529 3.56673 32.7947 3.5752C33.8555 3.61236 34.8 2.80069 34.8 1.73921Z" fill="#222428"/>
<path d="M34.8 12.6828C34.8 11.3331 34.0072 10.0589 32.6603 9.97229C32.4617 9.95951 32.2562 9.95312 32.0438 9.95312C31.0438 9.95312 30.2104 10.0833 29.5438 10.3437C28.8771 10.6042 28.3771 10.9635 28.0438 11.4219C27.7104 11.8698 27.5385 12.3854 27.5281 12.9688C27.5073 13.4479 27.601 13.8698 27.8094 14.2344C28.0281 14.599 28.3406 14.9219 28.7469 15.2031C29.1635 15.474 29.6635 15.7135 30.2469 15.9219C30.8302 16.1302 31.4865 16.3125 32.2156 16.4688C33.5394 16.7696 34.8 15.7634 34.8 14.4058V12.6828Z" fill="#222428"/>
</svg>
